<svg version="1.1" xmlns="http://www.w3.org/2000/svg" xmlns:xlink="http://www.w3.org/1999/xlink" width="59" height="59"><defs/><g><path fill="#b7c4c9" stroke="none" paint-order="stroke fill markers" fill-rule="evenodd" d=" M 33.51645225286484 38.462369322776794 C 33.51645225286484 35.66735661029816 31.89853537082672 34.289001762866974 30.115749716758728 32.78900748491287 C 30.115749716758728 32.78900748491287 28.65737098455429 31.654131948947906 28.65737098455429 31.654131948947906 C 28.21162360906601 31.29182630777359 27.605434358119965 30.80486088991165 27.605434358119965 29.913471460342407 C 27.605434358119965 29.02308428287506 28.214137732982635 28.455595552921295 28.740306496620178 27.929426789283752 C 30.43965381383896 26.592286586761475 32.14201468229294 25.17562872171402 32.14201468229294 22.178453266620636 C 32.14201468229294 19.098743200302124 30.196273028850555 17.479820668697357 29.26607435941696 16.710169196128845 C 29.26607435941696 16.710169196128845 29.26607435941696 16.710169196128845 29.26607435941696 16.710169196128845 C 29.26607435941696 16.710169196128845 31.776794016361237 16.710169196128845 31.776794016361237 16.710169196128845 C 31.776794016361237 16.710169196128845 34.36662703752518 15.251287639141083 34.36662703752518 15.251287639141083 C 34.36662703752518 15.251287639141083 26.022902071475983 15.251287639141083 26.022902071475983 15.251287639141083 C 23.836592733860016 15.251287639141083 21.082794666290283 15.57529366016388 18.77233177423477 17.479820668697357 C 17.03126698732376 18.97700184583664 16.18149310350418 21.04357773065567 16.18149310350418 22.90688669681549 C 16.18149310350418 26.06410652399063 18.611285150051117 29.266563594341278 22.903981864452362 29.266563594341278 C 23.310423970222473 29.266563594341278 23.75365722179413 29.224343299865723 24.201813399791718 29.18604028224945 C 23.999548733234406 29.67300570011139 23.79778689146042 30.076427459716797 23.79778689146042 30.765654146671295 C 23.79778689146042 32.019254088401794 24.445296108722687 32.79192250967026 25.012682914733887 33.51935029029846 C 23.191597640514374 33.64109164476395 19.787477254867554 33.84335631132126 17.277664721012115 35.3817555308342 C 14.886675119400024 36.79931712150574 14.158642590045929 38.86589640378952 14.158642590045929 40.32477456331253 C 14.158642590045929 43.321950018405914 16.994873344898224 46.11696273088455 22.867591619491577 46.11696273088455 C 29.8310489654541 46.11696273088455 33.51645225286484 42.26760119199753 33.51645225286484 38.462369322776794 Z M 24.808006048202515 28.1336008310318 C 21.323865175247192 28.1336008310318 19.74374508857727 23.637232899665833 19.74374508857727 20.924754798412323 C 19.74374508857727 19.870402574539185 19.945506930351257 18.779663503170013 20.634635090827942 17.927575945854187 C 21.28214430809021 17.116607904434204 22.417019844055176 16.58842784166336 23.471368670463562 16.58842784166336 C 26.833771586418152 16.58842784166336 28.574435472488403 21.127019464969635 28.574435472488403 24.040756583213806 C 28.574435472488403 24.77120131254196 28.493908762931824 26.067021548748016 27.561804115772247 26.999730944633484 C 26.913792073726654 27.646638810634613 25.82063740491867 28.1315895318985 24.808006048202515 28.1336008310318 Z M 24.849224090576172 44.41460186243057 C 20.515407860279083 44.41460186243057 17.720395147800446 42.35003387928009 17.720395147800446 39.47459977865219 C 17.720395147800446 36.60006940364838 20.313646018505096 35.62815326452255 21.204536020755768 35.304147243499756 C 22.906394064426422 34.736760437488556 25.09270340204239 34.65422582626343 25.457927465438843 34.65422582626343 C 25.862358272075653 34.65422582626343 26.06412011384964 34.65422582626343 26.388126134872437 34.69544047117233 C 29.46824049949646 36.8817498087883 30.801959455013275 37.97540730237961 30.801959455013275 40.04198658466339 C 30.801959455013275 42.5522985458374 28.737391471862793 44.41460186243057 24.849224090576172 44.41460186243057 Z M 33.88167291879654 30.59475487470627 C 33.88167291879654 30.59475487470627 38.26806491613388 30.59475487470627 38.26806491613388 30.59475487470627 C 38.26806491613388 30.59475487470627 38.26806491613388 34.978231847286224 38.26806491613388 34.978231847286224 C 38.26806491613388 34.978231847286224 40.45920205116272 34.978231847286224 40.45920205116272 34.978231847286224 C 40.45920205116272 34.978231847286224 40.45920205116272 30.59475487470627 40.45920205116272 30.59475487470627 C 40.45920205116272 30.59475487470627 44.842675626277924 30.59475487470627 44.842675626277924 30.59475487470627 C 44.842675626277924 30.59475487470627 44.842675626277924 28.40362113714218 44.842675626277924 28.40362113714218 C 44.842675626277924 28.40362113714218 40.45920205116272 28.40362113714218 40.45920205116272 28.40362113714218 C 40.45920205116272 28.40362113714218 40.45920205116272 24.020147562026978 40.45920205116272 24.020147562026978 C 40.45920205116272 24.020147562026978 38.26806491613388 24.020147562026978 38.26806491613388 24.020147562026978 C 38.26806491613388 24.020147562026978 38.26806491613388 28.40362113714218 38.26806491613388 28.40362113714218 C 38.26806491613388 28.40362113714218 33.88167291879654 28.40362113714218 33.88167291879654 28.40362113714218 C 33.88167291879654 28.40362113714218 33.88167291879654 30.59475487470627 33.88167291879654 30.59475487470627 Z M 57.99391174316406 29.499188005924225 C 57.99391174316406 13.762049734592438 45.23635005950928 1.004494845867157 29.499201595783234 1.004494845867157 C 13.762056529521942 1.004494845867157 1.004494845867157 13.762049734592438 1.004494845867157 29.499188005924225 C 1.004494845867157 45.236329674720764 13.762056529521942 57.99391174316406 29.499201595783234 57.99391174316406 C 45.23635005950928 57.99391174316406 57.99391174316406 45.236329674720764 57.99391174316406 29.499188005924225 Z M 3.594732165336609 29.499188005924225 C 3.594732165336609 15.1924809217453 15.19198489189148 3.5942259430885315 29.499201595783234 3.5942259430885315 C 43.806924521923065 3.5942259430885315 55.403171598911285 15.1924809217453 55.403171598911285 29.499188005924225 C 55.403171598911285 43.8058984875679 43.806924521923065 55.40410250425339 29.499201595783234 55.40410250425339 C 15.19198489189148 55.40410250425339 3.594732165336609 43.8058984875679 3.594732165336609 29.499188005924225 Z"/></g></svg>