<?xml version="1.0"?>
<svg xmlns="http://www.w3.org/2000/svg" xmlns:xlink="http://www.w3.org/1999/xlink" version="1.1" viewBox="0 0 224 224" width="24px" height="24px"><g fill="none" fill-rule="nonzero" stroke="none" stroke-width="1" stroke-linecap="butt" stroke-linejoin="miter" stroke-miterlimit="10" stroke-dasharray="" stroke-dashoffset="0" font-family="none" font-weight="none" font-size="none" text-anchor="none" style="mix-blend-mode: normal"><path d="M0,224v-224h224v224z" fill="none"/><g fill="#dce0e2"><path d="M112,9.33333c-31.02222,0 -56,24.97778 -56,56v9.33333c-10.26667,0 -18.66667,8.4 -18.66667,18.66667v93.33333c0,10.26667 8.4,18.66667 18.66667,18.66667h112c10.26667,0 18.66667,-8.4 18.66667,-18.66667v-93.33333c0,-10.26667 -8.4,-18.66667 -18.66667,-18.66667v-9.33333c0,-31.02222 -24.97777,-56 -56,-56zM112,28c21.24444,0 37.33333,16.08889 37.33333,37.33333v9.33333h-74.66667v-9.33333c0,-21.24444 16.08889,-37.33333 37.33333,-37.33333zM112,121.33333c10.26667,0 18.66667,8.4 18.66667,18.66667c0,10.26667 -8.4,18.66667 -18.66667,18.66667c-10.26667,0 -18.66667,-8.4 -18.66667,-18.66667c0,-10.26667 8.4,-18.66667 18.66667,-18.66667z"/></g></g></svg>
